#!OML:ASF F:\VICON\USERDATA\INSTALL\rory3\rory3.ASF
:FULLY-SPECIFIED
:DEGREES
979
root 0.240617 17.8803 19.2703 -4.28407 -2.24294 1.33703
lowerback 9.69938 0.107931 -1.97664
upperback 0.898144 -0.0476975 0.465324
thorax -4.50349 0.0172851 1.60391
lowerneck -15.3345 -2.38154 -2.06983
upperneck 21.0048 -2.98011 0.770052
head 9.17719 -1.477 0.240354
rclavicle 1.33558e-015 5.96354e-016
rhumerus -28.1433 -20.8284 -79.4788
rradius 25.245
rwrist 6.16533
rhand -16.8311 16.961
rfingers 7.12502
rthumb 9.39829 -12.8094
lclavicle 1.33558e-015 5.96354e-016
lhumerus -31.243 2.1467 79.3839
lradius 24.0524
lwrist 10.3425
lhand -30.144 16.5802
lfingers 7.12502
lthumb -3.45654 46.5319
rfemur -25.6056 -2.64589 20.9107
rtibia 70.9021
rfoot -7.40326 -4.43426
rtoes 2.50188
lfemur -4.38612 -3.1725 -27.4081
ltibia 28.6311
lfoot -15.1234 -2.19892
ltoes 0.035315
980
root 0.233468 17.8681 19.4467 -4.27171 -2.1041 1.6274
lowerback 9.75358 0.0343269 -2.38773
upperback 0.855996 -0.192913 0.436895
thorax -4.57049 -0.0456999 1.82598
lowerneck -15.131 -2.43313 -2.10372
upperneck 20.8072 -3.03853 0.738277
head 9.07227 -1.51183 0.231382
rclavicle 8.65956e-015 7.95139e-015
rhumerus -28.5827 -20.6842 -79.4311
rradius 25.2719
rwrist 6.22236
rhand -17.0357 18.5704
rfingers 7.12502
rthumb 9.20093 -11.2088
lclavicle 8.65956e-015 7.95139e-015
lhumerus -30.7221 2.26725 79.0342
lradius 24.5721
lwrist 8.17647
lhand -27.5396 21.2256
lfingers 7.12502
lthumb -0.941211 51.2033
rfemur -26.4894 -2.52736 20.715
rtibia 69.5151
rfoot -8.23581 -4.46835
rtoes 0.725052
lfemur -3.65762 -3.02678 -27.7774
ltibia 28.3902
lfoot -15.4005 -2.22549
ltoes 1.89339
981
root 0.225102 17.864 19.6095 -4.13162 -2.03437 1.78108
lowerback 10.13 0.000427751 -2.64174
upperback 0.56818 -0.279488 0.435959
thorax -5.07715 -0.0728724 1.98404
lowerneck -14.9221 -2.44868 -1.9392
upperneck 20.8313 -3.04634 0.477766
head 9.03493 -1.53218 0.116838
rclavicle -3.21161e-015 -9.34288e-015
rhumerus -29.2029 -20.8794 -79.1228
rradius 25.063
rwrist 6.55938
rhand -16.9409 20.2374
rfingers 7.12502
rthumb 9.2924 -9.53781
lclavicle -3.21161e-015 -9.34288e-015
lhumerus -30.5452 1.51633 79.0337
lradius 24.7643
lwrist 8.08733
lhand -27.1512 20.9979
lfingers 7.12502
lthumb -0.566097 50.9769
rfemur -27.4842 -2.26704 20.6692
rtibia 67.8623
rfoot -9.019 -4.55306
rtoes -1.24396
lfemur -3.02156 -2.92346 -27.99
ltibia 28.1015
lfoot -15.7725 -2.06294
ltoes 2.74197
982
root 0.21574 17.8668 19.7782 -4.03911 -2.01739 1.77408
lowerback 10.1437 -0.0139076 -2.7942
upperback 0.618749 -0.311244 0.522356
thorax -5.02894 -0.0854497 2.16482
lowerneck -15.1549 -2.43292 -1.92962
upperneck 20.8393 -2.99678 0.371455
head 9.0781 -1.51877 0.0820635
rclavicle 6.17475e-015 1.78906e-015
rhumerus -29.3308 -20.5639 -79.1658
rradius 25.1019
rwrist 6.20581
rhand -17.0523 20.515
rfingers 7.12502
rthumb 9.18491 -9.26492
lclavicle 6.17475e-015 1.78906e-015
lhumerus -29.8353 0.944815 79.1334
lradius 24.986
lwrist 8.23268
lhand -27.3577 21.3152
lfingers 7.12502
lthumb -0.76554 51.2936
rfemur -28.1887 -1.93001 20.7949
rtibia 65.9552
rfoot -9.6807 -4.78485
rtoes -2.32955
lfemur -2.2016 -2.76408 -28.0172
ltibia 27.6559
lfoot -15.9436 -2.0127
ltoes 4.3962
983
root 0.21496 17.8764 19.9552 -3.92766 -1.79211 1.69438
lowerback 9.89863 -0.147617 -2.73623
upperback 0.731885 -0.471504 0.571579
thorax -4.76387 -0.170882 2.20293
lowerneck -15.151 -2.45718 -2.1076
upperneck 20.6765 -3.03103 0.573129
head 9.02816 -1.52679 0.177138
rclavicle -6.49777e-015 -9.93923e-016
rhumerus -29.4994 -20.3491 -79.2802
rradius 25.2095
rwrist 5.64314
rhand -17.4768 22.1108
rfingers 7.12502
rthumb 8.77524 -7.68681
lclavicle -6.49777e-015 -9.93923e-016
lhumerus -29.1289 0.643668 79.0231
lradius 25.4517
lwrist 7.54558
lhand -27.2873 23.3927
lfingers 7.12502
lthumb -0.697582 53.3713
rfemur -28.6787 -1.94739 20.9266
rtibia 63.853
rfoot -9.74064 -5.56228
rtoes -3.95013
lfemur -1.3401 -2.65972 -28.0188
ltibia 27.0718
lfoot -15.9333 -1.90704
ltoes 4.2904
